<svg id="darkmode" xmlns="http://www.w3.org/2000/svg" viewBox="0 0 169.72 140.54"><defs><style>.cls-1{fill:#fff;}</style></defs><path class="cls-1" d="M65.06,197.91a8.73,8.73,0,0,0-1.61-.47l-.09,0h-.19a12.44,12.44,0,0,1-1.29-.31,1.92,1.92,0,0,1-.78-.47,1.21,1.21,0,0,1-.31-.86h0a1.47,1.47,0,0,1,.61-1.24,2.86,2.86,0,0,1,1.69-.43,3.5,3.5,0,0,1,1.22.22,5.43,5.43,0,0,1,1.21.67l.85-1.18a6.09,6.09,0,0,0-1.06-.62,5,5,0,0,0-1.09-.37,4.78,4.78,0,0,0-1.13-.13,5.23,5.23,0,0,0-2,.37,2.73,2.73,0,0,0-1.29,1.06,3.07,3.07,0,0,0-.45,1.69h0a2.77,2.77,0,0,0,.48,1.74,2.41,2.41,0,0,0,1.15.84,11.14,11.14,0,0,0,1.74.42l.11,0h.09a9.25,9.25,0,0,1,1.18.29,1.8,1.8,0,0,1,.75.48,1.32,1.32,0,0,1,.29.89h0a1.37,1.37,0,0,1-.64,1.21,3.22,3.22,0,0,1-1.79.43,4.58,4.58,0,0,1-1.59-.27,4.05,4.05,0,0,1-1.34-.79l-.93,1.14a5.43,5.43,0,0,0,1.12.74,5.68,5.68,0,0,0,1.28.44,7.61,7.61,0,0,0,1.46.14,5.54,5.54,0,0,0,2.11-.36,2.81,2.81,0,0,0,1.34-1.06,2.89,2.89,0,0,0,.46-1.66v0a2.78,2.78,0,0,0-.44-1.65A2.52,2.52,0,0,0,65.06,197.91Z" transform="translate(-58.81 -62.99)"/><polygon class="cls-1" points="17.48 138.13 14.92 129.78 13.3 129.78 16.77 140.43 18.19 140.43 21.66 129.78 20.04 129.78 17.48 138.13"/><polygon class="cls-1" points="28.5 129.78 27.77 129.78 27.77 140.43 28.5 140.43 29.27 140.43 34.61 140.43 34.61 139.01 29.27 139.01 29.27 135.85 33.81 135.85 33.81 134.43 29.27 134.43 29.27 131.2 34.61 131.2 34.61 129.78 29.27 129.78 28.5 129.78"/><polygon class="cls-1" points="47.62 137.73 42.59 129.78 41.24 129.78 41.24 140.42 42.72 140.42 42.72 132.59 47.73 140.42 49.1 140.42 49.1 129.78 47.62 129.78 47.62 137.73"/><path class="cls-1" d="M120.85,193.18a3.37,3.37,0,0,0-1.68-.41h-4.12v10.65h1.49v-4.13h2.63a3.37,3.37,0,0,0,1.68-.4,2.79,2.79,0,0,0,1.12-1.14,3.86,3.86,0,0,0,0-3.42A2.76,2.76,0,0,0,120.85,193.18Zm-.21,3.82a1.42,1.42,0,0,1-.57.64,1.56,1.56,0,0,1-.85.23h-2.68v-3.68h2.68a1.56,1.56,0,0,1,.85.23,1.5,1.5,0,0,1,.57.65,2.43,2.43,0,0,1,0,1.93Z" transform="translate(-58.81 -62.99)"/><polygon class="cls-1" points="71.43 129.78 69.93 129.78 69.93 140.43 70.68 140.43 71.43 140.43 76.77 140.43 76.77 139.01 71.43 139.01 71.43 129.78"/><path class="cls-1" d="M144.89,192.77,141,203.42h1.61l.8-2.33h4.3l.81,2.33h1.61l-3.93-10.65Zm-1,6.9,1.66-4.84,1.66,4.84Z" transform="translate(-58.81 -62.99)"/><polygon class="cls-1" points="103.78 137.73 98.74 129.78 97.39 129.78 97.39 140.42 98.87 140.42 98.87 132.59 103.89 140.42 105.25 140.42 105.25 129.78 103.78 129.78 103.78 137.73"/><path class="cls-1" d="M176.79,197.91a8.73,8.73,0,0,0-1.61-.47l-.08,0h-.19a12.74,12.74,0,0,1-1.3-.31,1.82,1.82,0,0,1-.77-.47,1.16,1.16,0,0,1-.31-.86h0a1.46,1.46,0,0,1,.6-1.24,2.87,2.87,0,0,1,1.7-.43,3.44,3.44,0,0,1,1.21.22,5.22,5.22,0,0,1,1.21.67l.85-1.18a6.09,6.09,0,0,0-1.06-.62,5,5,0,0,0-1.09-.37,4.7,4.7,0,0,0-1.12-.13,5.25,5.25,0,0,0-2.05.37,2.83,2.83,0,0,0-1.29,1.06,3.06,3.06,0,0,0-.44,1.69h0a2.84,2.84,0,0,0,.47,1.74,2.41,2.41,0,0,0,1.15.84,11.74,11.74,0,0,0,1.74.42l.11,0h.09a9.46,9.46,0,0,1,1.19.29,1.83,1.83,0,0,1,.74.48,1.27,1.27,0,0,1,.29.89h0a1.39,1.39,0,0,1-.63,1.21,3.28,3.28,0,0,1-1.8.43,4.58,4.58,0,0,1-1.59-.27,4.16,4.16,0,0,1-1.34-.79l-.93,1.14a5.43,5.43,0,0,0,1.12.74,6,6,0,0,0,1.28.44,7.61,7.61,0,0,0,1.46.14,5.51,5.51,0,0,0,2.11-.36,2.81,2.81,0,0,0,1.34-1.06,2.89,2.89,0,0,0,.46-1.66v0a2.78,2.78,0,0,0-.43-1.65A2.49,2.49,0,0,0,176.79,197.91Z" transform="translate(-58.81 -62.99)"/><rect class="cls-1" x="125.29" y="138.86" width="1.57" height="1.57"/><path class="cls-1" d="M193.54,195.32a2,2,0,0,1,.76-.88,2.14,2.14,0,0,1,2-.11,2.36,2.36,0,0,1,.77.61,2.44,2.44,0,0,1,.46.89h1.53a4.1,4.1,0,0,0-.7-1.67,3.55,3.55,0,0,0-3-1.5,3.76,3.76,0,0,0-1.94.5,3.36,3.36,0,0,0-1.3,1.39,4.5,4.5,0,0,0-.46,2.09v2.92a4.5,4.5,0,0,0,.46,2.09,3.36,3.36,0,0,0,1.3,1.39,3.76,3.76,0,0,0,1.94.49,3.59,3.59,0,0,0,3-1.5,4.05,4.05,0,0,0,.7-1.66h-1.53a2.42,2.42,0,0,1-.46.92,2.14,2.14,0,0,1-1.68.78,2.07,2.07,0,0,1-1.14-.31,2,2,0,0,1-.76-.88,3.05,3.05,0,0,1-.27-1.32v-2.92A3.05,3.05,0,0,1,193.54,195.32Z" transform="translate(-58.81 -62.99)"/><path class="cls-1" d="M210.93,193.15a4.19,4.19,0,0,0-3.93,0,3.3,3.3,0,0,0-1.31,1.38,4.38,4.38,0,0,0-.47,2.06v3a4.41,4.41,0,0,0,.47,2.06A3.33,3.33,0,0,0,207,203a4.19,4.19,0,0,0,3.93,0,3.27,3.27,0,0,0,1.31-1.37,4.41,4.41,0,0,0,.47-2.06v-3a4.38,4.38,0,0,0-.47-2.06A3.24,3.24,0,0,0,210.93,193.15Zm.25,6.51a2.66,2.66,0,0,1-.28,1.26,1.91,1.91,0,0,1-.77.84,2.23,2.23,0,0,1-1.16.3,2.2,2.2,0,0,1-1.16-.3,1.87,1.87,0,0,1-.78-.84,2.78,2.78,0,0,1-.28-1.26v-3.12a2.86,2.86,0,0,1,.28-1.27,2,2,0,0,1,.78-.84,2.2,2.2,0,0,1,1.16-.3,2.23,2.23,0,0,1,1.16.3,2,2,0,0,1,.77.84,2.73,2.73,0,0,1,.28,1.27Z" transform="translate(-58.81 -62.99)"/><polygon class="cls-1" points="165.2 136.81 162.07 129.78 160.67 129.78 160.67 140.43 162.13 140.43 162.13 133.23 164.68 138.95 165.72 138.95 168.26 133.09 168.26 140.43 169.72 140.43 169.72 129.78 168.32 129.78 165.2 136.81"/><path class="cls-1" d="M142,63h-5.39a46,46,0,0,0-46,46v5.39H142ZM127,96.24a6.09,6.09,0,0,1-.95,3.44,5.93,5.93,0,0,1-2.77,2.18,11.35,11.35,0,0,1-4.36.75,14.66,14.66,0,0,1-3-.3,11.23,11.23,0,0,1-5-2.42l1.92-2.37a8.6,8.6,0,0,0,2.77,1.64,9.75,9.75,0,0,0,3.29.54,6.63,6.63,0,0,0,3.71-.88,2.86,2.86,0,0,0,1.31-2.51h0a2.65,2.65,0,0,0-.6-1.83,3.51,3.51,0,0,0-1.54-1,16.71,16.71,0,0,0-2.44-.6l-.1,0h-.1l-.23,0a24.27,24.27,0,0,1-3.59-.85A5,5,0,0,1,113,90.21a5.75,5.75,0,0,1-1-3.6h0a6.37,6.37,0,0,1,.92-3.49,5.76,5.76,0,0,1,2.67-2.21,11.77,11.77,0,0,1,6.55-.5,12,12,0,0,1,2.25.77,12.6,12.6,0,0,1,2.19,1.28L124.8,84.9a10.28,10.28,0,0,0-2.51-1.38,7.15,7.15,0,0,0-2.51-.47,5.9,5.9,0,0,0-3.5.9A3,3,0,0,0,115,86.5v0a2.48,2.48,0,0,0,.64,1.79,4,4,0,0,0,1.61,1,25.43,25.43,0,0,0,2.67.64l.11,0,.12,0,.16,0,.17,0a17.58,17.58,0,0,1,3.34,1,5.2,5.2,0,0,1,2.24,1.8,5.76,5.76,0,0,1,.9,3.42Z" transform="translate(-58.81 -62.99)"/><path class="cls-1" d="M195,122.82a46,46,0,0,0-46-46h-4.65v50.65H195Zm-26.18-7.34h-2.94l-7.17-22h3.36l5.28,17.26,5.28-17.26H176Z" transform="translate(-58.81 -62.99)"/><path class="cls-1" d="M133.93,170.61h8v-54h-54v8A46,46,0,0,0,133.93,170.61Zm-22-42H126v2.93H115v6.68h9.38v2.94H115v6.52h11v2.94H111.89Z" transform="translate(-58.81 -62.99)"/><path class="cls-1" d="M197.7,137v-7.36H144.35V183h7.36A46,46,0,0,0,197.7,137Zm-22.23,26.64h-2.83l-10.37-16.19v16.19h-3.06v-22H162l10.4,16.44V141.68h3.06Z" transform="translate(-58.81 -62.99)"/></svg>